<svg width="70" height="70" viewBox="0 0 70 70" fill="none" xmlns="http://www.w3.org/2000/svg">
<rect width="70" height="70" rx="10" fill="url(#paint0_linear_915_42)"/>
<path d="M24.5832 43.3333H45.4165M25.0665 16.7333C24.2311 17.5708 23.8707 18.6229 23.704 19.8729C23.5415 21.0771 23.5415 22.6083 23.5415 24.5062V45.4937C23.5415 47.3916 23.5415 48.9229 23.704 50.1271C23.8707 51.3771 24.2311 52.4291 25.0665 53.2666C25.904 54.1021 26.9561 54.4625 28.2061 54.6291C29.4103 54.7916 30.9415 54.7916 32.8394 54.7916H37.1603C39.0582 54.7916 40.5894 54.7916 41.7936 54.6291C43.0436 54.4625 44.0957 54.1021 44.9332 53.2666C45.7686 52.4291 46.129 51.3771 46.2957 50.1271C46.4582 48.9229 46.4582 47.3916 46.4582 45.4937V24.5062C46.4582 22.6083 46.4582 21.0771 46.2957 19.8729C46.129 18.6229 45.7686 17.5708 44.9332 16.7333C44.0957 15.8979 43.0436 15.5375 41.7936 15.3708C40.5894 15.2083 39.0582 15.2083 37.1603 15.2083H32.8394C30.9415 15.2083 29.4103 15.2083 28.2061 15.3708C26.9561 15.5375 25.904 15.8979 25.0665 16.7333Z" stroke="white" stroke-width="2.5"/>
<defs>
<linearGradient id="paint0_linear_915_42" x1="0" y1="35" x2="70" y2="35" gradientUnits="userSpaceOnUse">
<stop stop-color="#4FAEFE"/>
<stop offset="1" stop-color="#0047FE"/>
</linearGradient>
</defs>
</svg>
