<svg width="70" height="70" viewBox="0 0 70 70" fill="none" xmlns="http://www.w3.org/2000/svg">
<rect width="70" height="70" rx="10" fill="url(#paint0_linear_915_39)"/>
<path d="M24.0625 16.25C21.9905 16.25 20.0034 17.0731 18.5382 18.5382C17.0731 20.0034 16.25 21.9905 16.25 24.0625V45.9375C16.25 48.0095 17.0731 49.9966 18.5382 51.4618C20.0034 52.9269 21.9905 53.75 24.0625 53.75H45.9375C48.0095 53.75 49.9966 52.9269 51.4618 51.4618C52.9269 49.9966 53.75 48.0095 53.75 45.9375V24.0625C53.75 21.9905 52.9269 20.0034 51.4618 18.5382C49.9966 17.0731 48.0095 16.25 45.9375 16.25H24.0625ZM19.375 24.0625C19.375 22.8193 19.8689 21.627 20.7479 20.7479C21.627 19.8689 22.8193 19.375 24.0625 19.375H45.9375C47.1807 19.375 48.373 19.8689 49.2521 20.7479C50.1311 21.627 50.625 22.8193 50.625 24.0625V45.9375C50.625 47.1807 50.1311 48.373 49.2521 49.2521C48.373 50.1311 47.1807 50.625 45.9375 50.625H24.0625C22.8193 50.625 21.627 50.1311 20.7479 49.2521C19.8689 48.373 19.375 47.1807 19.375 45.9375V24.0625ZM25.625 25.625C25.2106 25.625 24.8132 25.7896 24.5201 26.0826C24.2271 26.3757 24.0625 26.7731 24.0625 27.1875C24.0625 27.6019 24.2271 27.9993 24.5201 28.2924C24.8132 28.5854 25.2106 28.75 25.625 28.75H44.375C44.7894 28.75 45.1868 28.5854 45.4799 28.2924C45.7729 27.9993 45.9375 27.6019 45.9375 27.1875C45.9375 26.7731 45.7729 26.3757 45.4799 26.0826C45.1868 25.7896 44.7894 25.625 44.375 25.625H25.625Z" fill="white"/>
<defs>
<linearGradient id="paint0_linear_915_39" x1="0" y1="35" x2="70" y2="35" gradientUnits="userSpaceOnUse">
<stop stop-color="#4FAEFE"/>
<stop offset="1" stop-color="#0047FE"/>
</linearGradient>
</defs>
</svg>
