<svg width="318" height="86" viewBox="0 0 318 86" fill="none" xmlns="http://www.w3.org/2000/svg">
<path d="M34.1111 11.8889L43 3M25.2222 60.7778L60.7778 25.2222M43 83L51.8889 74.1111M63 74.1111C65.9469 74.1111 68.773 72.9405 70.8567 70.8567C72.9405 68.773 74.1111 65.9469 74.1111 63C74.1111 60.0532 72.9405 57.227 70.8567 55.1433C68.773 53.0595 65.9469 51.8889 63 51.8889C60.0532 51.8889 57.227 53.0595 55.1433 55.1433C53.0595 57.227 51.8889 60.0532 51.8889 63C51.8889 65.9469 53.0595 68.773 55.1433 70.8567C57.227 72.9405 60.0532 74.1111 63 74.1111ZM23 34.1111C25.9469 34.1111 28.773 32.9405 30.8567 30.8567C32.9405 28.773 34.1111 25.9469 34.1111 23C34.1111 20.0531 32.9405 17.227 30.8567 15.1433C28.773 13.0595 25.9469 11.8889 23 11.8889C20.0531 11.8889 17.227 13.0595 15.1433 15.1433C13.0595 17.227 11.8889 20.0531 11.8889 23C11.8889 25.9469 13.0595 28.773 15.1433 30.8567C17.227 32.9405 20.0531 34.1111 23 34.1111ZM14.1111 83C17.058 83 19.8841 81.8294 21.9679 79.7456C24.0516 77.6619 25.2222 74.8357 25.2222 71.8889C25.2222 68.942 24.0516 66.1159 21.9679 64.0322C19.8841 61.9484 17.058 60.7778 14.1111 60.7778C11.1643 60.7778 8.33811 61.9484 6.25437 64.0322C4.17063 66.1159 3 68.942 3 71.8889C3 74.8357 4.17063 77.6619 6.25437 79.7456C8.33811 81.8294 11.1643 83 14.1111 83ZM71.8889 25.2222C74.8357 25.2222 77.6619 24.0516 79.7456 21.9679C81.8294 19.8841 83 17.058 83 14.1111C83 11.1643 81.8294 8.33811 79.7456 6.25437C77.6619 4.17063 74.8357 3 71.8889 3C68.942 3 66.1159 4.17063 64.0322 6.25437C61.9484 8.33811 60.7778 11.1643 60.7778 14.1111C60.7778 17.058 61.9484 19.8841 64.0322 21.9679C66.1159 24.0516 68.942 25.2222 71.8889 25.2222Z" stroke="white" stroke-width="5" stroke-linecap="round" stroke-linejoin="round"/>
<path d="M140.641 25.6989C140.641 26.8743 140.486 27.8953 140.177 28.7622C139.868 29.629 139.434 30.3783 138.875 31.01C138.331 31.6271 137.669 32.1339 136.889 32.5306C136.124 32.9126 135.271 33.2211 134.329 33.4562C133.403 33.6766 132.409 33.8309 131.35 33.919C130.291 34.0072 129.195 34.0512 128.062 34.0512H106.06V3.77132H127.665C128.533 3.77132 129.401 3.80805 130.269 3.88151C131.152 3.95497 131.99 4.09454 132.785 4.30023C133.579 4.49122 134.315 4.76302 134.991 5.11563C135.683 5.46823 136.279 5.93102 136.779 6.50401C137.294 7.07699 137.691 7.76751 137.971 8.57556C138.265 9.38361 138.412 10.3386 138.412 11.4405C138.412 13.4092 137.926 14.9739 136.955 16.1345C135.984 17.2805 134.454 18.0445 132.365 18.4264C133.837 18.5293 135.094 18.757 136.139 19.1096C137.198 19.4475 138.059 19.9177 138.721 20.52C139.383 21.1077 139.868 21.835 140.177 22.7018C140.486 23.5539 140.641 24.5529 140.641 25.6989ZM130.423 12.7407C130.423 12.3587 130.365 11.9988 130.247 11.6608C130.129 11.3082 129.916 10.9997 129.607 10.7353C129.298 10.4708 128.879 10.2578 128.349 10.0962C127.819 9.93455 127.143 9.85375 126.319 9.85375H114.248V15.5395H126.319C127.143 15.5395 127.819 15.466 128.349 15.3191C128.879 15.1722 129.298 14.9739 129.607 14.7241C129.916 14.4743 130.129 14.1805 130.247 13.8426C130.365 13.49 130.423 13.1227 130.423 12.7407ZM132.321 24.7513C132.321 24.0608 132.204 23.5098 131.968 23.0985C131.733 22.6724 131.365 22.3492 130.865 22.1288C130.365 21.8937 129.717 21.7395 128.923 21.666C128.128 21.5925 127.179 21.5558 126.076 21.5558H114.248V27.9688H126.076C127.179 27.9688 128.128 27.9321 128.923 27.8586C129.717 27.7852 130.365 27.6309 130.865 27.3958C131.365 27.1608 131.733 26.8375 131.968 26.4262C132.204 26.0001 132.321 25.4418 132.321 24.7513Z" fill="white"/>
<path d="M173.831 34.0512V31.0761C172.786 31.6491 171.661 32.156 170.454 32.5967C169.263 33.0375 168.02 33.4121 166.725 33.7207C165.43 34.0292 164.092 34.2569 162.709 34.4038C161.34 34.5654 159.957 34.6463 158.56 34.6463C156.927 34.6463 155.345 34.492 153.815 34.1835C152.3 33.8749 150.954 33.3754 149.777 32.6849C148.6 31.9944 147.651 31.0908 146.93 29.9742C146.224 28.8577 145.871 27.4913 145.871 25.8752C145.871 23.833 146.43 22.1361 147.548 20.7845C148.666 19.4181 150.373 18.3016 152.668 17.4347C154.963 16.5679 157.861 15.8994 161.362 15.4293C164.879 14.9592 169.035 14.5919 173.831 14.3274V13.6883C173.831 13.1888 173.698 12.6966 173.434 12.2118C173.169 11.7123 172.683 11.2789 171.977 10.9116C171.286 10.5296 170.329 10.221 169.108 9.98598C167.902 9.75091 166.357 9.63337 164.474 9.63337C162.988 9.63337 161.517 9.71418 160.06 9.87579C158.619 10.0227 157.221 10.2284 155.868 10.4928C154.529 10.7573 153.256 11.0658 152.05 11.4184C150.843 11.771 149.747 12.1383 148.762 12.5203V5.24785C149.792 4.9834 150.946 4.72629 152.226 4.47653C153.506 4.22677 154.838 4.01374 156.221 3.83744C157.604 3.64644 159.001 3.49952 160.414 3.39668C161.826 3.27915 163.179 3.22038 164.474 3.22038C167.019 3.22038 169.366 3.43341 171.514 3.85947C173.662 4.27085 175.508 4.91729 177.053 5.7988C178.612 6.68031 179.826 7.79689 180.694 9.14854C181.577 10.5002 182.018 12.1089 182.018 13.9748V34.0512H173.831ZM173.831 20.2335C170.682 20.3511 168.005 20.52 165.798 20.7404C163.606 20.9608 161.782 21.2179 160.325 21.5117C158.869 21.8056 157.721 22.1214 156.883 22.4594C156.059 22.7973 155.441 23.1425 155.029 23.4951C154.617 23.8477 154.36 24.2003 154.257 24.5529C154.168 24.9056 154.124 25.2288 154.124 25.5226C154.124 25.8752 154.22 26.2205 154.411 26.5584C154.602 26.8816 154.933 27.1681 155.404 27.4179C155.89 27.6676 156.53 27.866 157.324 28.0129C158.119 28.1598 159.119 28.2333 160.325 28.2333C161.664 28.2333 162.973 28.1304 164.253 27.9247C165.533 27.719 166.747 27.4399 167.895 27.0873C169.042 26.72 170.116 26.2939 171.116 25.8091C172.132 25.3096 173.036 24.7807 173.831 24.2224V20.2335Z" fill="white"/>
<path d="M220.262 34.0512V17.0821C220.262 15.9509 220.166 14.9298 219.975 14.0189C219.783 13.0933 219.423 12.3073 218.893 11.6608C218.378 10.9997 217.65 10.4928 216.709 10.1402C215.782 9.77294 214.583 9.5893 213.112 9.5893C211.993 9.5893 210.817 9.74356 209.581 10.0521C208.36 10.3459 207.146 10.7426 205.94 11.2421C204.733 11.7417 203.578 12.322 202.475 12.9831C201.386 13.6442 200.415 14.3348 199.562 15.0547V34.0512H191.375V3.77132H199.562V7.91442C200.592 7.32675 201.688 6.74642 202.85 6.17344C204.012 5.58577 205.248 5.05686 206.557 4.58672C207.867 4.11658 209.257 3.73459 210.728 3.44076C212.199 3.14692 213.752 3 215.385 3C217.43 3 219.254 3.24976 220.857 3.74928C222.476 4.23412 223.844 4.93198 224.962 5.84287C226.08 6.73908 226.933 7.83362 227.522 9.1265C228.125 10.4047 228.427 11.8371 228.427 13.4239V34.0512H220.262Z" fill="white"/>
<path d="M266.604 34.0512C266.457 32.4057 266.06 30.9659 265.412 29.7318C264.765 28.483 263.949 27.4105 262.963 26.5143C261.992 25.6181 260.888 24.8762 259.653 24.2885C258.432 23.7008 257.174 23.238 255.879 22.9001C254.584 22.5475 253.29 22.3051 251.995 22.1729C250.715 22.0259 249.523 21.9525 248.42 21.9525H245.993V34.0512H237.805V3.77132H245.993V15.4513H247.67C248.803 15.4513 249.987 15.3632 251.223 15.1869C252.459 15.0106 253.68 14.7314 254.886 14.3495C256.107 13.9675 257.277 13.4753 258.395 12.8729C259.513 12.2706 260.513 11.536 261.396 10.6691C262.279 9.80233 263.014 8.80328 263.603 7.67201C264.191 6.52604 264.559 5.22582 264.706 3.77132H273.048C272.901 5.37273 272.577 6.81988 272.077 8.11276C271.591 9.40565 270.981 10.5663 270.245 11.5947C269.524 12.6085 268.715 13.4973 267.818 14.2613C266.92 15.0253 266.001 15.6864 265.059 16.2447C264.118 16.7883 263.176 17.2438 262.235 17.611C261.308 17.9637 260.44 18.2355 259.631 18.4264C260.66 18.5881 261.727 18.8452 262.83 19.1978C263.949 19.5357 265.052 19.9911 266.141 20.5641C267.229 21.1224 268.266 21.8129 269.252 22.6357C270.253 23.4584 271.15 24.4207 271.944 25.5226C272.739 26.6245 273.401 27.8807 273.931 29.2911C274.46 30.7015 274.799 32.2882 274.946 34.0512H266.604Z" fill="white"/>
<path d="M318 22.4153C318 24.384 317.515 26.1397 316.544 27.6823C315.573 29.225 314.19 30.5325 312.395 31.605C310.615 32.6629 308.452 33.4709 305.907 34.0292C303.376 34.5875 300.537 34.8666 297.389 34.8666C296.006 34.8666 294.549 34.8079 293.019 34.6903C291.504 34.5875 290.018 34.4332 288.562 34.2275C287.12 34.0365 285.766 33.8162 284.501 33.5664C283.236 33.3019 282.169 33.0155 281.301 32.7069V25.5226C282.243 25.9193 283.287 26.2939 284.435 26.6465C285.597 26.9991 286.855 27.315 288.208 27.5942C289.562 27.8586 291.011 28.0716 292.556 28.2333C294.115 28.3802 295.763 28.4536 297.499 28.4536C299.132 28.4536 300.566 28.3581 301.802 28.1671C303.053 27.9762 304.134 27.719 305.046 27.3958C305.958 27.0726 306.716 26.7053 307.319 26.2939C307.922 25.8679 308.408 25.4345 308.776 24.9937C309.143 24.5383 309.401 24.0902 309.548 23.6494C309.71 23.2086 309.791 22.7973 309.791 22.4153V19.7487C308.29 20.8506 306.503 21.7615 304.428 22.4814C302.354 23.1866 299.993 23.5392 297.345 23.5392C294.27 23.5392 291.702 23.2454 289.643 22.6577C287.598 22.0553 285.958 21.1959 284.722 20.0793C283.486 18.948 282.603 17.5743 282.074 15.9582C281.559 14.3421 281.301 12.5203 281.301 10.4928V3.77132H289.532V9.67745C289.532 10.8675 289.687 11.9253 289.996 12.8509C290.32 13.7765 290.82 14.5551 291.497 15.1869C292.188 15.8039 293.078 16.2741 294.167 16.5973C295.255 16.9205 296.572 17.0821 298.117 17.0821C299.426 17.0821 300.662 16.9205 301.824 16.5973C303.001 16.2741 304.083 15.848 305.068 15.3191C306.054 14.7902 306.944 14.1878 307.738 13.512C308.533 12.8362 309.217 12.1457 309.791 11.4405V3.77132H318V22.4153Z" fill="white"/>
<path d="M123.053 55.494V79.1846H114.866V55.494H102V48.9047H135.94V55.494H123.053Z" fill="white"/>
<path d="M141.369 79.1846V48.9047H172.065V55.3618H149.777V60.3643H170.918V66.8214H149.777V72.7275H172.374V79.1846H141.369Z" fill="white"/>
<path d="M213.707 77.1131C212.648 77.5538 211.582 77.9505 210.508 78.3031C209.434 78.6557 208.323 78.9569 207.175 79.2066C206.028 79.4711 204.814 79.6694 203.534 79.8017C202.269 79.9339 200.908 80 199.452 80C196.362 80 193.515 79.6694 190.911 79.0083C188.322 78.3472 186.086 77.3555 184.203 76.0332C182.334 74.6962 180.878 73.0361 179.833 71.0527C178.789 69.0546 178.266 66.7259 178.266 64.0667C178.266 61.4075 178.789 59.0861 179.833 57.1027C180.878 55.1047 182.334 53.4445 184.203 52.1222C186.086 50.7853 188.322 49.7862 190.911 49.1251C193.515 48.4639 196.362 48.1334 199.452 48.1334C200.908 48.1334 202.269 48.1995 203.534 48.3317C204.814 48.4639 206.028 48.6623 207.175 48.9267C208.323 49.1765 209.434 49.4777 210.508 49.8303C211.582 50.1829 212.648 50.5796 213.707 51.0203V58.3809C212.869 57.9255 211.986 57.4774 211.059 57.0366C210.132 56.5812 209.11 56.1772 207.992 55.8246C206.874 55.4573 205.645 55.1634 204.306 54.943C202.968 54.708 201.46 54.5904 199.783 54.5904C197.208 54.5904 195.067 54.8549 193.361 55.3838C191.669 55.9127 190.315 56.6179 189.3 57.4994C188.285 58.3809 187.572 59.3947 187.16 60.5406C186.748 61.6719 186.542 62.8473 186.542 64.0667C186.542 64.8747 186.63 65.6754 186.807 66.4688C186.983 67.2475 187.277 67.9894 187.689 68.6946C188.101 69.3851 188.638 70.0242 189.3 70.6119C189.962 71.1996 190.786 71.7065 191.772 72.1325C192.758 72.5586 193.905 72.8965 195.215 73.1463C196.539 73.3813 198.061 73.4989 199.783 73.4989C201.46 73.4989 202.968 73.396 204.306 73.1903C205.645 72.9699 206.874 72.6835 207.992 72.3309C209.11 71.9782 210.132 71.5816 211.059 71.1408C211.986 70.6854 212.869 70.2226 213.707 69.7524V77.1131Z" fill="white"/>
<path d="M250.362 79.1846V66.557H229.53V79.1846H221.343V48.9047H229.53V59.9236H250.362V48.9047H258.549V79.1846H250.362Z" fill="white"/>
<path d="M295.976 57.4333C295.403 57.1542 294.645 56.8383 293.703 56.4857C292.762 56.1331 291.695 55.8025 290.503 55.494C289.312 55.1708 288.017 54.9063 286.62 54.7006C285.222 54.4803 283.787 54.3701 282.316 54.3701C281.139 54.3701 280.132 54.4068 279.293 54.4803C278.469 54.5537 277.77 54.6492 277.197 54.7667C276.638 54.8843 276.189 55.0239 275.85 55.1855C275.527 55.3324 275.277 55.4866 275.1 55.6483C274.924 55.8099 274.806 55.9715 274.747 56.1331C274.703 56.2947 274.681 56.4416 274.681 56.5738C274.681 57.0146 274.902 57.4039 275.343 57.7418C275.784 58.0651 276.387 58.3589 277.152 58.6234C277.917 58.8731 278.808 59.1155 279.823 59.3506C280.838 59.571 281.912 59.806 283.045 60.0558C284.192 60.2909 285.369 60.5553 286.575 60.8492C287.796 61.1283 288.973 61.4589 290.106 61.8409C291.254 62.2229 292.335 62.671 293.35 63.1852C294.365 63.6847 295.255 64.2724 296.02 64.9482C296.785 65.624 297.389 66.4027 297.83 67.2842C298.271 68.1657 298.492 69.1721 298.492 70.3034C298.492 71.7579 298.235 73.0067 297.72 74.0498C297.205 75.0929 296.513 75.9744 295.645 76.6943C294.792 77.4142 293.799 77.9946 292.666 78.4353C291.533 78.8614 290.342 79.1919 289.091 79.427C287.855 79.6621 286.597 79.8164 285.318 79.8898C284.052 79.9633 282.846 80 281.698 80C278.697 80 275.917 79.7502 273.357 79.2507C270.812 78.7659 268.561 78.1562 266.604 77.4216V70.1932C268.62 71.3098 270.915 72.1839 273.489 72.8157C276.078 73.4474 278.844 73.7633 281.787 73.7633C283.523 73.7633 284.935 73.6752 286.024 73.4989C287.127 73.3079 287.988 73.0728 288.606 72.7936C289.224 72.4998 289.643 72.1839 289.864 71.846C290.084 71.5081 290.195 71.1849 290.195 70.8764C290.195 70.3915 289.974 69.9728 289.532 69.6202C289.091 69.2529 288.488 68.937 287.723 68.6726C286.958 68.3934 286.068 68.1437 285.053 67.9233C284.038 67.6882 282.956 67.4605 281.809 67.2401C280.676 67.0051 279.506 66.7553 278.3 66.4908C277.094 66.2264 275.917 65.9179 274.769 65.5653C273.636 65.198 272.562 64.7792 271.547 64.3091C270.532 63.8243 269.642 63.2586 268.877 62.6122C268.112 61.9511 267.509 61.1944 267.067 60.3423C266.626 59.4755 266.405 58.4764 266.405 57.3452C266.405 56.0082 266.641 54.8549 267.112 53.8852C267.582 52.9156 268.215 52.0928 269.009 51.417C269.819 50.7265 270.745 50.1682 271.79 49.7421C272.849 49.3161 273.96 48.9855 275.122 48.7504C276.284 48.5154 277.461 48.3538 278.653 48.2656C279.845 48.1774 280.978 48.1334 282.051 48.1334C283.228 48.1334 284.435 48.1921 285.671 48.3097C286.921 48.4272 288.15 48.5962 289.356 48.8165C290.562 49.0222 291.725 49.2646 292.843 49.5438C293.975 49.8229 295.02 50.1168 295.976 50.4253V57.4333Z" fill="white"/>
</svg>
